<svg width="500" height="500" viewBox="0 0 500 500" fill="none" xmlns="http://www.w3.org/2000/svg">
<rect width="500" height="500" fill="#262626"/>
<path d="M20 332H480V387H20V332Z" fill="#D73F1E"/>
<path d="M73.75 360V132.5H229.219V195.625H154.688V222.344H219.062V279.062H154.688V360H73.75ZM207.656 360L280.156 132.5H367.812L437.5 360H358.906L325.156 233.75C324.01 229.479 323.073 225.781 322.344 222.656C321.719 219.427 321.25 217.24 320.938 216.094H320.625C320.312 217.24 319.74 219.375 318.906 222.5C318.177 225.625 317.344 229.323 316.406 233.594L285.625 360H207.656ZM256.875 328.594L266.094 277.656H376.562L386.875 328.594H256.875Z" fill="white"/>
</svg>
